HIERARCHY
ROOT Hips
{
	OFFSET 0.000000 88.474243 0.000000
	CHANNELS 6 Xposition Yposition Zposition Zrotation Yrotation Xrotation 
	JOINT Hips_Spine
	{
		OFFSET 0.000000 0.000000 0.000000
		CHANNELS 3 Zrotation Yrotation Xrotation
		JOINT Spine
		{
			OFFSET 0.005100 8.711998 -0.691000
			CHANNELS 3 Zrotation Yrotation Xrotation
			JOINT Spine1
			{
				OFFSET -0.009200 8.660301 -1.275000
				CHANNELS 3 Zrotation Yrotation Xrotation
				JOINT Spine2
				{
					OFFSET 0.006300 9.852501 -1.857000
					CHANNELS 3 Zrotation Yrotation Xrotation
					JOINT Spine2_Neck
					{
						OFFSET 0.000000 0.000000 0.000000
						CHANNELS 3 Zrotation Yrotation Xrotation
						JOINT Neck
						{
							OFFSET 0.016300 11.420799 -0.263300
							CHANNELS 3 Zrotation Yrotation Xrotation
							End Site #name: Head
							{
								OFFSET -0.019200 9.262405 2.362500
							}
						}
					}
					JOINT Spine2_LeftShoulder
					{
						OFFSET 0.000000 0.000000 0.000000
						CHANNELS 3 Zrotation Yrotation Xrotation
						JOINT LeftShoulder
						{
							OFFSET 5.616900 6.732201 -0.345700
							CHANNELS 3 Zrotation Yrotation Xrotation
							JOINT LeftArm
							{
								OFFSET 10.664888 -0.183372 -2.440700
								CHANNELS 3 Zrotation Yrotation Xrotation
								JOINT LeftForeArm
								{
									OFFSET 27.459126 0.000000 0.000000
									CHANNELS 3 Zrotation Yrotation Xrotation
									End Site #name: LeftHand
									{
										OFFSET 21.306858 0.000000 0.000000
									}
								}
							}
						}
					}
					JOINT Spine2_RightShoulder
					{
						OFFSET 0.000000 0.000000 0.000000
						CHANNELS 3 Zrotation Yrotation Xrotation
						JOINT RightShoulder
						{
							OFFSET -5.580300 6.737503 -0.344400
							CHANNELS 3 Zrotation Yrotation Xrotation
							JOINT RightArm
							{
								OFFSET -10.679335 -0.188484 -2.383900
								CHANNELS 3 Zrotation Yrotation Xrotation
								JOINT RightForeArm
								{
									OFFSET -27.503529 0.000000 0.000000
									CHANNELS 3 Zrotation Yrotation Xrotation
									End Site #name: RightHand
									{
										OFFSET -21.306808 0.000000 0.000000
									}
								}
							}
						}
					}
				}
			}
		}
	}
	JOINT Hips_LeftUpLeg
	{
		OFFSET 0.000000 0.000000 0.000000
		CHANNELS 3 Zrotation Yrotation Xrotation
		JOINT LeftUpLeg
		{
			OFFSET 6.857700 -6.739601 0.312100
			CHANNELS 3 Zrotation Yrotation Xrotation
			JOINT LeftLeg
			{
				OFFSET -0.367590 -34.731552 -4.572400
				CHANNELS 3 Zrotation Yrotation Xrotation
				End Site #name: LeftFoot
				{
					OFFSET 0.367590 -34.656704 -6.067400
				}
			}
		}
	}
	JOINT Hips_RightUpLeg
	{
		OFFSET 0.000000 0.000000 0.000000
		CHANNELS 3 Zrotation Yrotation Xrotation
		JOINT RightUpLeg
		{
			OFFSET -6.876100 -6.733299 0.301000
			CHANNELS 3 Zrotation Yrotation Xrotation
			JOINT RightLeg
			{
				OFFSET 0.347353 -34.795158 -4.515900
				CHANNELS 3 Zrotation Yrotation Xrotation
				End Site #name: RightFoot
				{
					OFFSET -0.347353 -34.589367 -6.070300
				}
			}
		}
	}
}
MOTION
Frames: 9
Frame Time: 0.041667
-11.553623 -2.721328 -3.833240 -8.655857 18.314378 -2.274526 0.000000 -0.000000 0.000000 5.080421 -3.811182 0.222201 2.051900 -0.631103 3.388985 0.000000 0.000000 0.000000 2.384227 -0.358186 3.769822 -1.755022 -15.685136 -2.538174 1.441018 -0.471702 1.778842 -4.856761 -5.743251 -2.034818 -82.061959 -11.806212 -11.787219 -1.662044 15.729330 1.827681 2.301821 -1.124523 3.370274 16.815798 0.497381 6.080317 48.644710 21.244547 -17.898217 -5.585777 46.236293 0.653672 0.000000 0.000000 -0.000000 4.224254 20.716591 -14.209419 -1.913414 -19.940845 4.409633 0.000000 0.000000 0.000000 0.601335 -9.666301 -5.625501 7.458100 5.106557 8.816999 
-12.042103 -2.818497 -3.980121 -8.625399 18.433847 -2.323618 0.000000 -0.000000 0.000000 4.938718 -3.906768 0.264296 2.078255 -0.631494 3.389843 0.000000 0.000000 0.000000 2.415013 -0.362109 3.753328 -1.675883 -15.770099 -2.558934 1.456937 -0.460983 1.756375 -4.803335 -5.761065 -2.054875 -82.238738 -11.877672 -11.878546 -1.688276 15.780302 1.773102 2.340334 -1.116853 3.357679 16.910852 0.337066 6.326586 49.415918 20.546576 -16.783296 -5.558279 45.050132 0.663261 0.000000 0.000000 -0.000000 4.239249 20.635297 -14.076784 -1.926241 -20.072605 4.276744 0.000000 -0.000000 0.000000 0.662328 -9.633480 -5.576361 7.480176 5.091536 8.816411 
-12.528122 -2.916092 -4.128285 -8.599027 18.582401 -2.380480 0.000000 -0.000000 0.000000 4.791528 -3.981956 0.326155 2.099861 -0.630737 3.380362 0.000000 0.000000 0.000000 2.442793 -0.363864 3.736102 -1.608818 -15.830224 -2.595885 1.471023 -0.448829 1.733709 -4.751131 -5.791343 -2.065175 -82.409172 -11.944274 -11.963762 -1.713050 15.843817 1.719227 2.378137 -1.108366 3.348947 17.074569 0.145632 6.526927 50.053342 19.889752 -15.812899 -5.554621 43.910320 0.661951 0.000000 0.000000 -0.000000 4.251227 20.568566 -13.955281 -1.936039 -20.180091 4.144174 0.000000 -0.000000 0.000000 0.718051 -9.602833 -5.528805 7.494117 5.062660 8.817569 
-13.009178 -3.013719 -4.277942 -8.577464 18.738607 -2.434743 0.000000 -0.000000 0.000000 4.644544 -4.065645 0.400709 2.114120 -0.628426 3.361090 0.000000 0.000000 0.000000 2.465523 -0.365055 3.711945 -1.555811 -15.858654 -2.646528 1.482832 -0.438239 1.704581 -4.701389 -5.824835 -2.077243 -82.569073 -11.998823 -12.045514 -1.738504 15.925126 1.670633 2.409927 -1.101799 3.336890 17.290731 -0.167633 6.649633 50.612035 19.202767 -14.981942 -5.565344 42.835251 0.653395 0.000000 0.000000 -0.000000 4.261289 20.512782 -13.858104 -1.943876 -20.241860 4.041092 0.000000 -0.000000 0.000000 0.767406 -9.592598 -5.494316 7.501454 5.023500 8.825468 
-13.484667 -3.111288 -4.429191 -8.558422 18.900800 -2.481510 0.000000 -0.000000 0.000000 4.497246 -4.161989 0.487049 2.122436 -0.626044 3.334507 0.000000 0.000000 0.000000 2.485111 -0.366848 3.684862 -1.513801 -15.853644 -2.716599 1.491533 -0.427994 1.670598 -4.656482 -5.870055 -2.079852 -82.716452 -12.062460 -12.126300 -1.760982 16.017488 1.624835 2.435012 -1.091880 3.324501 17.522472 -0.474386 6.738969 51.097204 18.582553 -14.194936 -5.575177 41.793910 0.643756 0.000000 -0.000000 -0.000000 4.266910 20.462647 -13.789544 -1.951443 -20.265388 3.958767 0.000000 -0.000000 0.000000 0.816286 -9.567909 -5.472837 7.498141 4.973215 8.844676 
-13.952514 -3.208491 -4.581566 -8.546191 19.065272 -2.528922 0.000000 -0.000000 0.000000 4.334457 -4.266190 0.576292 2.122733 -0.625318 3.297924 0.000000 0.000000 0.000000 2.498414 -0.369102 3.648129 -1.494752 -15.812497 -2.803153 1.496120 -0.420033 1.626687 -4.610519 -5.920365 -2.078734 -82.865355 -12.114612 -12.224373 -1.782328 16.122205 1.586474 2.447809 -1.085321 3.302101 17.711822 -0.548386 6.815529 51.494731 18.101753 -13.469796 -5.589125 40.859018 0.630686 0.000000 -0.000000 -0.000000 4.272842 20.427343 -13.740851 -1.957568 -20.254582 3.914948 0.000000 -0.000000 0.000000 0.862365 -9.559143 -5.465276 7.479058 4.910713 8.884092 
-14.411891 -3.305621 -4.735051 -8.542581 19.250610 -2.580562 0.000000 -0.000000 0.000000 4.156882 -4.366705 0.662311 2.113796 -0.623258 3.258178 0.000000 0.000000 0.000000 2.507900 -0.370660 3.608935 -1.499345 -15.745634 -2.898630 1.497146 -0.412391 1.579227 -4.560805 -5.980874 -2.073491 -83.009287 -12.179541 -12.318643 -1.799354 16.219801 1.558037 2.448594 -1.082351 3.277631 17.849052 -0.534834 6.904737 51.940752 17.728143 -12.562613 -5.615699 40.084256 0.604981 0.000000 -0.000000 -0.000000 4.275659 20.409994 -13.721610 -1.963149 -20.208514 3.906529 0.000000 -0.000000 0.000000 0.904962 -9.550085 -5.467302 7.455529 4.841110 8.933422 
-14.862536 -3.402864 -4.889760 -8.544582 19.441671 -2.637312 0.000000 -0.000000 0.000000 3.965902 -4.461844 0.767192 2.094370 -0.618661 3.220766 0.000000 0.000000 0.000000 2.507761 -0.368870 3.571158 -1.518594 -15.659120 -3.004087 1.493492 -0.402381 1.529118 -4.499909 -6.034570 -2.077093 -83.144232 -12.249851 -12.414999 -1.815645 16.312289 1.536236 2.442332 -1.076716 3.252731 17.906688 -0.494331 6.981187 52.323587 17.489826 -11.654549 -5.656544 39.579390 0.564932 0.000000 -0.000000 -0.000000 4.284489 20.409144 -13.721820 -1.973587 -20.128493 3.952819 0.000000 -0.000000 0.000000 0.943159 -9.550833 -5.468781 7.427280 4.766103 8.984355 
-15.303464 -3.500344 -5.045578 -8.553308 19.643970 -2.700677 0.000000 -0.000000 0.000000 3.777908 -4.517060 0.912493 2.058466 -0.612353 3.190943 0.000000 0.000000 0.000000 2.495082 -0.363998 3.534294 -1.546812 -15.559497 -3.110131 1.482196 -0.388409 1.484363 -4.437111 -6.100629 -2.072679 -83.274076 -12.317252 -12.514245 -1.827765 16.384187 1.518436 2.421524 -1.062548 3.223011 17.944318 -0.392168 7.050937 52.655442 17.295315 -10.777505 -5.710530 39.461694 0.501746 0.000000 -0.000000 -0.000000 4.293042 20.430907 -13.733470 -1.982475 -20.009693 4.039854 0.000000 -0.000000 0.000000 0.975963 -9.560374 -5.476843 7.398175 4.693965 9.048459 
